<svg width="152" height="152" viewBox="0 0 152 152" fill="none" xmlns="http://www.w3.org/2000/svg">
<rect width="152" height="152" fill="#F7E296"/>
<path fill-rule="evenodd" clip-rule="evenodd" d="M38 32.0122V119.988H73.2185C78.8957 120.127 84.5397 119.076 89.7911 116.902C95.0426 114.727 99.7865 111.477 103.721 107.357C107.754 103.227 110.919 98.3219 113.026 92.9344C115.133 87.5469 116.139 81.7874 115.985 76C116.139 70.2125 115.133 64.4531 113.026 59.0655C110.919 53.678 107.754 48.7729 103.721 44.643C99.7863 40.5236 95.0422 37.2732 89.7908 35.0987C84.5395 32.9241 78.8956 31.873 73.2185 32.0122H38ZM58 101V51H73.2211C76.3507 50.8746 79.472 51.7668 82.385 52.9246C85.298 54.0824 87.9387 55.8393 90.1381 58.0828C92.3462 60.4854 94.0563 63.3066 95.1686 66.3816C96.2808 69.4566 97.1569 72.7237 97 75.9921C97.157 79.2605 96.281 82.5277 95.1688 85.6027C94.0565 88.6777 92.3463 91.4989 90.1381 93.9014C87.9391 96.1454 85.2985 97.9026 82.3853 99.0605C79.4722 100.218 76.3508 101.126 73.2211 101H58.1562H58Z" fill="black"/>
</svg>
