<svg width="10" height="8" viewBox="0 0 10 8" fill="none" xmlns="http://www.w3.org/2000/svg">
<path d="M9.86215 0.521705C9.79278 0.43991 9.69341 0.393158 9.58927 0.393158H7.65774V1.4188C7.65774 1.89008 7.25359 2.2735 6.75684 2.2735C6.26008 2.2735 5.85593 1.89008 5.85593 1.4188V0.393158H4.05413V1.4188C4.05413 1.89008 3.64999 2.2735 3.15323 2.2735C2.65648 2.2735 2.25233 1.89008 2.25233 1.4188V0.393158H0.32089C0.216656 0.393158 0.117286 0.43991 0.0479169 0.521705C-0.0215425 0.6035 -0.0544254 0.71256 -0.0425335 0.821449L0.605665 6.78461C0.617737 7.45692 1.14179 7.99999 1.78431 7.99999H8.12584C8.76828 7.99999 9.29233 7.45692 9.30449 6.78452L9.95269 0.821363C9.96449 0.712559 9.93161 0.6035 9.86215 0.521705Z" fill="#231F20"/>
</svg>
